<svg width="24" height="25" viewBox="0 0 24 25" fill="none" xmlns="http://www.w3.org/2000/svg">
<g id="fluent:grid-24-filled">
<g id="Vector">
<path d="M12.9999 15.75C12.9999 15.1533 13.237 14.581 13.659 14.159C14.0809 13.7371 14.6532 13.5 15.2499 13.5L18.7499 13.5C19.3467 13.5 19.919 13.7371 20.3409 14.159C20.7629 14.581 20.9999 15.1533 20.9999 15.75L20.9999 19.25C20.9999 19.8467 20.7629 20.419 20.3409 20.841C19.919 21.2629 19.3467 21.5 18.7499 21.5L15.2499 21.5C14.6532 21.5 14.0809 21.2629 13.659 20.841C13.237 20.419 12.9999 19.8467 12.9999 19.25L12.9999 15.75ZM12.9999 5.75C12.9999 5.15326 13.237 4.58097 13.6589 4.15901C14.0809 3.73705 14.6532 3.5 15.2499 3.5L18.7499 3.5C19.3467 3.5 19.919 3.73705 20.3409 4.15901C20.7629 4.58097 20.9999 5.15326 20.9999 5.75L20.9999 9.25C20.9999 9.84674 20.7629 10.419 20.3409 10.841C19.919 11.2629 19.3467 11.5 18.7499 11.5L15.2499 11.5C14.6532 11.5 14.0809 11.2629 13.6589 10.841C13.237 10.419 12.9999 9.84674 12.9999 9.25L12.9999 5.75ZM2.99994 15.75C2.99994 15.1533 3.23699 14.581 3.65895 14.159C4.08091 13.7371 4.6532 13.5 5.24994 13.5L8.74994 13.5C9.34668 13.5 9.91897 13.7371 10.3409 14.159C10.7629 14.581 10.9999 15.1533 10.9999 15.75L10.9999 19.25C10.9999 19.8467 10.7629 20.419 10.3409 20.841C9.91897 21.2629 9.34668 21.5 8.74994 21.5L5.24994 21.5C4.6532 21.5 4.08091 21.2629 3.65895 20.841C3.23699 20.419 2.99994 19.8467 2.99994 19.25L2.99994 15.75ZM2.99994 5.75C2.99994 5.15326 3.23699 4.58097 3.65895 4.15901C4.08091 3.73705 4.6532 3.5 5.24994 3.5L8.74994 3.5C9.34668 3.5 9.91897 3.73705 10.3409 4.15901C10.7629 4.58097 10.9999 5.15326 10.9999 5.75L10.9999 9.25C10.9999 9.84674 10.7629 10.419 10.3409 10.841C9.91897 11.2629 9.34668 11.5 8.74994 11.5L5.24994 11.5C4.6532 11.5 4.08091 11.2629 3.65895 10.841C3.23699 10.419 2.99994 9.84674 2.99994 9.25L2.99994 5.75Z" fill="#6C7275"/>
<path d="M5.99994 21.5L5.99994 13.502L17.9999 13.502L17.9999 21.5L5.99994 21.5Z" fill="#6C7275"/>
<path d="M5.99994 11.498L5.99994 3.5L17.9999 3.5L17.9999 11.498L5.99994 11.498Z" fill="#6C7275"/>
</g>
</g>
</svg>
