<svg width="20" height="20" viewBox="0 0 20 20" fill="none" xmlns="http://www.w3.org/2000/svg">
    <path fill-rule="evenodd" clip-rule="evenodd" d="M10.5769 5.76422C10.2545 6.07365 9.74536 6.07365 9.42292 5.76422L8.84592 5.2105C8.17056 4.56239 7.2582 4.16667 6.24992 4.16667C4.17885 4.16667 2.49992 5.8456 2.49992 7.91667C2.49992 9.90219 3.57474 11.5417 5.12638 12.8888C6.67935 14.237 8.53609 15.1312 9.64546 15.5876C9.87742 15.683 10.1224 15.683 10.3544 15.5876C11.4637 15.1312 13.3205 14.237 14.8735 12.8888C16.4251 11.5417 17.4999 9.90218 17.4999 7.91667C17.4999 5.8456 15.821 4.16667 13.7499 4.16667C12.7416 4.16667 11.8293 4.56239 11.1539 5.2105L10.5769 5.76422ZM9.99992 4.00798C9.02667 3.074 7.70533 2.5 6.24992 2.5C3.25838 2.5 0.833252 4.92512 0.833252 7.91667C0.833252 13.2235 6.64187 16.1542 9.01141 17.1289C9.64956 17.3914 10.3503 17.3914 10.9884 17.1289C13.358 16.1542 19.1666 13.2235 19.1666 7.91667C19.1666 4.92512 16.7415 2.5 13.7499 2.5C12.2945 2.5 10.9732 3.074 9.99992 4.00798Z" fill="#6C7275"/>
</svg>
