<svg width="51" height="26" viewBox="0 0 51 26" fill="none" xmlns="http://www.w3.org/2000/svg">
<path d="M2 19H14M9.18961 8.54114C9.18961 8.54114 9.18961 9.63089 10.2794 10.7206C11.3691 11.8104 12.4589 11.8104 12.4589 11.8104M4.87975 16.992L7.16823 16.6651C7.49833 16.618 7.80424 16.465 8.04003 16.2292L13.5486 10.7206C14.1505 10.1188 14.1505 9.14299 13.5486 8.54114L12.4589 7.45139C11.857 6.84954 10.8812 6.84954 10.2794 7.45139L4.77078 12.96C4.53499 13.1958 4.38203 13.5017 4.33488 13.8318L4.00795 16.1202C3.9353 16.6288 4.3712 17.0647 4.87975 16.992Z" stroke="#6C7275" stroke-width="1.5" stroke-linecap="round"/>
<path d="M21.1477 19V7.36364H28.7159V9.13068H23.2557V12.2898H28.3239V14.0568H23.2557V17.233H28.7614V19H21.1477ZM34.0142 19.1534C33.3286 19.1534 32.715 18.9773 32.1733 18.625C31.6316 18.2727 31.2036 17.7614 30.8892 17.0909C30.5748 16.4205 30.4176 15.6061 30.4176 14.6477C30.4176 13.678 30.5767 12.8598 30.8949 12.1932C31.2169 11.5227 31.6506 11.017 32.196 10.6761C32.7415 10.3314 33.3494 10.1591 34.0199 10.1591C34.5313 10.1591 34.9517 10.2462 35.2812 10.4205C35.6108 10.5909 35.8722 10.7973 36.0653 11.0398C36.2585 11.2784 36.4081 11.5038 36.5142 11.7159H36.5994V7.36364H38.6619V19H36.6392V17.625H36.5142C36.4081 17.8371 36.2547 18.0625 36.054 18.3011C35.8532 18.536 35.5881 18.7367 35.2585 18.9034C34.929 19.0701 34.5142 19.1534 34.0142 19.1534ZM34.5881 17.4659C35.0237 17.4659 35.3949 17.3485 35.7017 17.1136C36.0085 16.875 36.2415 16.5436 36.4006 16.1193C36.5597 15.6951 36.6392 15.2008 36.6392 14.6364C36.6392 14.072 36.5597 13.5814 36.4006 13.1648C36.2453 12.7481 36.0142 12.4242 35.7074 12.1932C35.4044 11.9621 35.0313 11.8466 34.5881 11.8466C34.1297 11.8466 33.7472 11.9659 33.4403 12.2045C33.1335 12.4432 32.9025 12.7727 32.7472 13.1932C32.5919 13.6136 32.5142 14.0947 32.5142 14.6364C32.5142 15.1818 32.5919 15.6686 32.7472 16.0966C32.9063 16.5208 33.1392 16.8561 33.446 17.1023C33.7566 17.3447 34.1373 17.4659 34.5881 17.4659ZM40.8537 19V10.2727H42.9105V19H40.8537ZM41.8878 9.03409C41.562 9.03409 41.2817 8.92614 41.0469 8.71023C40.812 8.49053 40.6946 8.22727 40.6946 7.92045C40.6946 7.60985 40.812 7.34659 41.0469 7.13068C41.2817 6.91098 41.562 6.80114 41.8878 6.80114C42.2173 6.80114 42.4976 6.91098 42.7287 7.13068C42.9635 7.34659 43.081 7.60985 43.081 7.92045C43.081 8.22727 42.9635 8.49053 42.7287 8.71023C42.4976 8.92614 42.2173 9.03409 41.8878 9.03409ZM49.3835 10.2727V11.8636H44.3665V10.2727H49.3835ZM45.6051 8.18182H47.6619V16.375C47.6619 16.6515 47.7036 16.8636 47.7869 17.0114C47.8741 17.1553 47.9877 17.2538 48.1278 17.3068C48.268 17.3598 48.4233 17.3864 48.5938 17.3864C48.7225 17.3864 48.84 17.3769 48.946 17.358C49.0559 17.339 49.1392 17.322 49.196 17.3068L49.5426 18.9148C49.4328 18.9527 49.2756 18.9943 49.071 19.0398C48.8703 19.0852 48.6241 19.1117 48.3324 19.1193C47.8172 19.1345 47.3532 19.0568 46.9403 18.8864C46.5275 18.7121 46.1998 18.4432 45.9574 18.0795C45.7188 17.7159 45.6013 17.2614 45.6051 16.7159V8.18182Z" fill="#6C7275"/>
</svg>
